#!OML:ASF F:\VICON\USERDATA\INSTALL\rory3\rory3.ASF
:FULLY-SPECIFIED
:DEGREES
37
root 0.6020388624727345 15.011905732920706 -15.048792798927778 20.852179499274335 -0.8643392452263469 -1.7030113616487368
lfemur -54.346759126917554 7.4840116197145115 -21.82809618649584
ltibia 65.11074063421239
lfoot -22.3601964435962 15.81968482531682
ltoes -18.066951325071543
rfemur -54.50203708757209 -2.193318569038075 21.46482502745719
rtibia 69.33510906705104
rfoot -27.304956663543415 -11.29238242019765
rtoes -0.5281584726351705
lowerback 15.026024801201881 1.3099621847913905 0.0649619399812923
upperback 6.495935114568107 1.7346010760224468 2.2401881930044185
thorax -5.098382624794741 0.9178707537862836 2.0675208235765545
lowerneck -17.791334361113357 -0.020832419934730992 -2.145786758641113
upperneck 5.815499109441404 0.4479051051210452 -0.2731799163973918
head 4.285149408957384 0.09473683046859441 0.4852042451348703
lclavicle -1.547015069447566e-15 5.046019524116761e-16
lhumerus -36.48004837804247 2.3745499548561537 83.34051924184523
lradius 15.649668179368366
lwrist 5.343302693518187
lhand -21.621499510226812 -3.0362194128455218
lfingers 7.125019999999999
lthumb 4.77408961796866 26.855285167327523
rclavicle -1.547015069447566e-15 5.046019524116761e-16
rhumerus -32.09563770549063 -17.994971599629658 -74.00673487592204
rradius 20.535340148225423
rwrist 35.92236640616338
rhand -14.9848629771801 -25.154041270868092
rfingers 7.125019999999999
rthumb 11.178801041012944 -54.8126410158043
38
root 0.5725203746664429 14.883165843380716 -15.612432046865008 22.169578539176868 -0.7364828609295601 -1.7484371308858082
lfemur -56.24009710149341 7.20853145685868 -21.79798287803162
ltibia 67.53999064846374
lfoot -23.011745698678904 16.902420969874782
ltoes -18.73942123731264
rfemur -56.374738738297026 -2.2607780144106897 21.86438891787194
rtibia 71.93549460216262
rfoot -28.11248523502817 -12.593664540113387
rtoes -0.7145172179172343
lowerback 16.446528391829286 1.404128112262659 -0.03752712259774332
upperback 5.692147385927569 1.8810444553746646 2.430563107424012
thorax -6.772926098016644 1.0123910884046503 2.2764822036961387
lowerneck -18.719002237787997 -0.01710467063717122 -2.1468858457259814
upperneck 4.816219484803327 0.48232233739917607 -0.34980790616034785
head 4.135808125748624 0.10481905047688339 0.46317408098579205
lclavicle -1.4669199546169702e-15 6.109530680863205e-16
lhumerus -35.5639341403793 3.8569822549164567 82.84371903699137
lradius 15.303552629498995
lwrist 4.443382607698878
lhand -21.606646451330676 -3.2031537495016242
lfingers 7.125019999999999
lthumb 4.788478081170384 26.69437212246801
rclavicle -1.46691995461697e-15 6.109530680863205e-16
rhumerus -31.87133982838045 -18.063882708276086 -73.85046623865172
rradius 20.788846091793275
rwrist 35.85352908725157
rhand -15.121479123014682 -25.11627281656002
rfingers 7.125019999999999
rthumb 11.046993096316696 -54.77919301121284
39
root 0.5403205492658865 14.783012907430127 -15.48786652219903 22.968804044289033 -0.7252140693159285 -1.8118906265219972
lfemur -57.26016406206304 6.990293593593461 -21.591204581281314
ltibia 68.8693485505341
lfoot -24.00065458166404 17.86181629025998
ltoes -19.858755282328488
rfemur -57.436443993722804 -2.193141783220921 22.161907357484534
rtibia 73.5287939299795
rfoot -29.32977756170107 -13.858039220091403
rtoes -1.627795744926222
lowerback 17.284810000108315 1.4874288590109557 -0.2912832129126358
upperback 4.496065123936271 1.9818200359529106 2.5794699369985343
thorax -8.435486758424897 1.0912467104174954 2.4993068255550632
lowerneck -19.72035784994788 -0.012344833144751682 -2.1218662520249723
upperneck 4.471782486403917 0.49498207359373503 -0.38773367128261826
head 4.221522408520759 0.10890343282381487 0.4478397490906673
lclavicle -1.5732740505591835e-15 4.699144183357509e-16
lhumerus -33.373035504175434 5.536117327837067 82.76244160046643
lradius 14.900424115741295
lwrist 3.216800171112852
lhand -21.80457829046889 -3.556337127298469
lfingers 7.125019999999999
lthumb 4.59735179700801 26.348257030075104
rclavicle -1.5732740505591835e-15 4.699144183357509e-16
rhumerus -30.825470391463277 -18.098486023423195 -74.2660951012175
rradius 21.46905015302174
rwrist 35.41423098669686
rhand -15.447650244971076 -25.307478168664378
rfingers 7.125019999999999
rthumb 10.732336998862149 -54.98781330028554
40
root 0.5022440563689583 14.811193776022565 -15.415255157306087 23.640707636902395 -0.6492316743589773 -1.8397293115455013
lfemur -57.04158295356816 7.024554471715293 -21.44468503928792
ltibia 69.1020648231874
lfoot -24.152072787488137 18.449705827280507
ltoes -21.075973582556877
rfemur -57.29915704701099 -2.308293684100118 22.470039842147244
rtibia 73.88745032657299
rfoot -29.531037610130355 -14.743282390908234
rtoes -2.5030821608790044
lowerback 18.00454634183602 1.5924682316556575 -0.46289952982956345
upperback 3.4653195155428156 2.103994301709887 2.750906292519215
thorax -9.717594962159664 1.1798982567302883 2.724100592028723
lowerneck -20.42401296915194 -0.0029813710550190414 -2.1292625699092915
upperneck 4.458350656048861 0.5165114559390448 -0.3741395199682058
head 4.364951836306798 0.11394566590093058 0.4500544651854209
lclavicle -1.4877154578936326e-15 5.836529415788169e-16
lhumerus -30.784857196999766 6.393019011593619 82.89362577799645
lradius 15.019622783555729
lwrist 2.810092492564683
lhand -21.984680334980833 -3.8531026889461213
lfingers 7.125019999999999
lthumb 4.42344738516414 26.058859152119044
rclavicle -1.4877154578936326e-15 5.836529415788169e-16
rhumerus -29.43906896803556 -17.36902923797164 -74.667826413204
rradius 22.6408759196519
rwrist 35.03109755649658
rhand -15.814644869441 -25.4396450088385
rfingers 7.125019999999999
rthumb 10.378302259676344 -55.13981520723048
